<svg width="16" height="16" viewBox="0 0 16 16" fill="none" xmlns="http://www.w3.org/2000/svg">
<path d="M12.6667 2H3.33333C2.59695 2 2 2.59695 2 3.33333V12.6667C2 13.403 2.59695 14 3.33333 14H12.6667C13.403 14 14 13.403 14 12.6667V3.33333C14 2.59695 13.403 2 12.6667 2Z" stroke="#222222" stroke-width="1.5" stroke-linecap="round" stroke-linejoin="round"/>
<path d="M5.66602 6.66797C6.2183 6.66797 6.66602 6.22025 6.66602 5.66797C6.66602 5.11568 6.2183 4.66797 5.66602 4.66797C5.11373 4.66797 4.66602 5.11568 4.66602 5.66797C4.66602 6.22025 5.11373 6.66797 5.66602 6.66797Z" fill="#222222" stroke="#222222" stroke-width="1.5" stroke-linecap="round" stroke-linejoin="round"/>
<path d="M14.0007 10.0013L10.6673 6.66797L3.33398 14.0013" stroke="#222222" stroke-width="1.5" stroke-linecap="round" stroke-linejoin="round"/>
</svg>
